<svg id="Layer_1" data-name="Layer 1" xmlns="http://www.w3.org/2000/svg" xmlns:xlink="http://www.w3.org/1999/xlink" viewBox="0 0 2070 1024"><defs><style>.cls-1{fill:url(#linear-gradient);}.cls-2{fill:url(#linear-gradient-2);}.cls-3{fill:url(#linear-gradient-3);}.cls-4{fill:url(#linear-gradient-4);}.cls-5{fill:#292c35;}</style><linearGradient id="linear-gradient" x1="406.86" y1="512" x2="627.02" y2="512" gradientUnits="userSpaceOnUse"><stop offset="0" stop-color="#aa70ff"/><stop offset="1" stop-color="#7719ff"/></linearGradient><linearGradient id="linear-gradient-2" x1="268.22" y1="456.63" x2="517.18" y2="456.63" xlink:href="#linear-gradient"/><linearGradient id="linear-gradient-3" x1="365.61" y1="502.15" x2="365.61" y2="676.42" xlink:href="#linear-gradient"/><linearGradient id="linear-gradient-4" x1="259.02" y1="589.36" x2="357.88" y2="589.36" xlink:href="#linear-gradient"/></defs><path class="cls-1" d="M562.83,568.25l-.39.18,57.09,108h-.21L452.69,578.59l-17.58-10.34-4.42-2.58a110.38,110.38,0,0,0,86-97.4,27,27,0,0,0,.48-5.17,16.57,16.57,0,0,0-.06-1.74c.06-1.14.06-2.29.06-3.43A110.35,110.35,0,0,0,406.86,347.58H516a111,111,0,0,1,111,111v9A111,111,0,0,1,562.83,568.25Z"/><path class="cls-2" d="M416.58,435v56.11h72.55a27.93,27.93,0,0,0,24.67-14.72,26.65,26.65,0,0,0,2.89-8.15,110.35,110.35,0,0,1-86,97.4l-14.13-8.26L314.65,497.54V417.21a60.91,60.91,0,0,0-19.44-44.59l-27-25H405c60.5,0,111.2,47.94,112.22,108.4,0,1.8,0,3.61,0,5.38a28.07,28.07,0,0,0-28-26.33Z"/><path class="cls-3" d="M416.58,672c0,1.47,0,2.93-.05,4.39H351.9a225.05,225.05,0,0,0,4.33-44A223.08,223.08,0,0,0,314.64,502.3v-.15a193.32,193.32,0,0,1,70.16,63.91l1.44,2.2c2.15,3.37,4.21,6.82,6.17,10.32A191.61,191.61,0,0,1,416.58,672Z"/><path class="cls-4" d="M356.23,632.37a225.05,225.05,0,0,1-4.33,44H314.64V502.3a223.08,223.08,0,0,1,41.59,130.07Z"/><path class="cls-5" d="M873.39,550.23l35.1,56.61H850.8L820,555.94H741.12v50.9h-49V416.33H841.81c43.28,0,72.94,27.48,72.94,69.94C914.75,517.3,899,540.16,873.39,550.23ZM741.12,514.85h87.09c14.69,0,37.55,0,37.55-28.58,0-28.85-22.86-28.85-37.55-28.85H741.12Z"/><path class="cls-5" d="M1099.84,549.41h46.26c-10.61,40.82-50.35,60.15-109.68,60.15-61,0-108.32-23.95-108.32-82.74,0-59.06,46-83,111-83,61,0,109.69,21,109.69,93.9H975.73c5.17,25.58,29.67,34,60.69,34C1068.54,571.73,1088.13,565.74,1099.84,549.41ZM977.36,508H1099c-7.89-22.59-30.76-28.85-60.15-28.85C1007,479.19,984.71,485.45,977.36,508Z"/><path class="cls-5" d="M1349.42,485.45l-120,82.47h120v38.92H1160.54V567.92l120-82.47h-120V446.53h188.88Z"/><path class="cls-5" d="M1557.37,485.45l-120,82.47h120v38.92H1368.49V567.92l120-82.47h-120V446.53h188.88Z"/><path class="cls-5" d="M1801.78,446.53,1693.46,674.88H1642l32.39-68h-24l-83-160.31h51.71l68.59,132.27,62.59-132.27Z"/></svg>